<svg xmlns="http://www.w3.org/2000/svg" xmlns:xlink="http://www.w3.org/1999/xlink" width="100" height="100" viewBox="0 0 42.999996 42.999996"><defs><linearGradient id="f"><stop offset="0" stop-color="#346604"/><stop offset="1" stop-color="#4e9a06"/></linearGradient><linearGradient id="e"><stop offset="0" stop-color="#fff"/><stop offset="1" stop-color="#fff" stop-opacity="0"/></linearGradient><linearGradient id="d"><stop offset="0" stop-color="#fff"/><stop offset="1" stop-color="#fff" stop-opacity="0"/></linearGradient><linearGradient id="c"><stop offset="0" stop-color="#fff"/><stop offset="1" stop-color="#fff" stop-opacity=".165"/></linearGradient><linearGradient id="b"><stop offset="0"/><stop offset="1" stop-opacity="0"/></linearGradient><linearGradient id="a"><stop offset="0" stop-color="#d3e9ff"/><stop offset=".155" stop-color="#d3e9ff"/><stop offset=".75" stop-color="#4074ae"/><stop offset="1" stop-color="#36486c"/></linearGradient><radialGradient xlink:href="#a" id="h" gradientTransform="matrix(1.08105 0 0 1.08105 -4.811 -2.89)" cx="18.248" cy="15.716" fx="18.248" fy="15.716" r="29.993" gradientUnits="userSpaceOnUse"/><radialGradient xlink:href="#c" id="X" gradientTransform="matrix(1.08105 0 0 1.08105 -4.811 -2.89)" cx="15.601" cy="12.142" fx="15.601" fy="12.142" r="43.527" gradientUnits="userSpaceOnUse"/><radialGradient xlink:href="#f" id="i" cx="37.179" cy="31.097" fx="37.179" fy="31.097" r="19.094" gradientTransform="matrix(.95296 -.02666 .02618 .93592 .663 2.18)" gradientUnits="userSpaceOnUse"/><linearGradient id="g"><stop offset="0"/><stop offset="1" stop-opacity="0"/></linearGradient><radialGradient xlink:href="#f" id="l" gradientUnits="userSpaceOnUse" gradientTransform="matrix(.95296 -.02666 .02618 .93592 .663 2.18)" cx="37.179" cy="31.097" fx="37.179" fy="31.097" r="19.094"/><radialGradient xlink:href="#f" id="k" gradientUnits="userSpaceOnUse" gradientTransform="matrix(.95296 -.02666 .02618 .93592 .663 2.18)" cx="37.179" cy="31.097" fx="37.179" fy="31.097" r="19.094"/><radialGradient xlink:href="#f" id="j" gradientUnits="userSpaceOnUse" gradientTransform="matrix(.95296 -.02666 .02618 .93592 .663 2.18)" cx="37.179" cy="31.097" fx="37.179" fy="31.097" r="19.094"/><radialGradient xlink:href="#f" id="o" gradientUnits="userSpaceOnUse" gradientTransform="matrix(.95296 -.02666 .02618 .93592 .663 2.18)" cx="37.179" cy="31.097" fx="37.179" fy="31.097" r="19.094"/><radialGradient xlink:href="#f" id="n" gradientUnits="userSpaceOnUse" gradientTransform="matrix(.95296 -.02666 .02618 .93592 .663 2.18)" cx="37.179" cy="31.097" fx="37.179" fy="31.097" r="19.094"/><radialGradient xlink:href="#f" id="m" gradientUnits="userSpaceOnUse" gradientTransform="matrix(.95296 -.02666 .02618 .93592 .663 2.18)" cx="37.179" cy="31.097" fx="37.179" fy="31.097" r="19.094"/><radialGradient xlink:href="#f" id="r" gradientUnits="userSpaceOnUse" gradientTransform="matrix(.95296 -.02666 .02618 .93592 .663 2.18)" cx="37.179" cy="31.097" fx="37.179" fy="31.097" r="19.094"/><radialGradient xlink:href="#f" id="q" gradientUnits="userSpaceOnUse" gradientTransform="matrix(.95296 -.02666 .02618 .93592 .663 2.18)" cx="37.179" cy="31.097" fx="37.179" fy="31.097" r="19.094"/><radialGradient xlink:href="#f" id="p" gradientUnits="userSpaceOnUse" gradientTransform="matrix(.95296 -.02666 .02618 .93592 .663 2.18)" cx="37.179" cy="31.097" fx="37.179" fy="31.097" r="19.094"/><radialGradient xlink:href="#f" id="u" gradientUnits="userSpaceOnUse" gradientTransform="matrix(.95296 -.02666 .02618 .93592 .663 2.18)" cx="37.179" cy="31.097" fx="37.179" fy="31.097" r="19.094"/><radialGradient xlink:href="#f" id="t" gradientUnits="userSpaceOnUse" gradientTransform="matrix(.95296 -.02666 .02618 .93592 .663 2.18)" cx="37.179" cy="31.097" fx="37.179" fy="31.097" r="19.094"/><radialGradient xlink:href="#f" id="s" gradientUnits="userSpaceOnUse" gradientTransform="matrix(.95296 -.02666 .02618 .93592 .663 2.18)" cx="37.179" cy="31.097" fx="37.179" fy="31.097" r="19.094"/><radialGradient xlink:href="#f" id="x" gradientUnits="userSpaceOnUse" gradientTransform="matrix(.95296 -.02666 .02618 .93592 .663 2.18)" cx="37.179" cy="31.097" fx="37.179" fy="31.097" r="19.094"/><radialGradient xlink:href="#f" id="w" gradientUnits="userSpaceOnUse" gradientTransform="matrix(.95296 -.02666 .02618 .93592 .663 2.18)" cx="37.179" cy="31.097" fx="37.179" fy="31.097" r="19.094"/><radialGradient xlink:href="#f" id="v" gradientUnits="userSpaceOnUse" gradientTransform="matrix(.95296 -.02666 .02618 .93592 .663 2.18)" cx="37.179" cy="31.097" fx="37.179" fy="31.097" r="19.094"/><radialGradient xlink:href="#f" id="A" gradientUnits="userSpaceOnUse" gradientTransform="matrix(.95296 -.02666 .02618 .93592 .663 2.18)" cx="37.179" cy="31.097" fx="37.179" fy="31.097" r="19.094"/><radialGradient xlink:href="#f" id="z" gradientUnits="userSpaceOnUse" gradientTransform="matrix(.95296 -.02666 .02618 .93592 .663 2.18)" cx="37.179" cy="31.097" fx="37.179" fy="31.097" r="19.094"/><radialGradient xlink:href="#f" id="y" gradientUnits="userSpaceOnUse" gradientTransform="matrix(.95296 -.02666 .02618 .93592 .663 2.18)" cx="37.179" cy="31.097" fx="37.179" fy="31.097" r="19.094"/><radialGradient xlink:href="#f" id="D" gradientUnits="userSpaceOnUse" gradientTransform="matrix(.95296 -.02666 .02618 .93592 .663 2.18)" cx="37.179" cy="31.097" fx="37.179" fy="31.097" r="19.094"/><radialGradient xlink:href="#f" id="C" gradientUnits="userSpaceOnUse" gradientTransform="matrix(.95296 -.02666 .02618 .93592 .663 2.18)" cx="37.179" cy="31.097" fx="37.179" fy="31.097" r="19.094"/><radialGradient xlink:href="#f" id="B" gradientUnits="userSpaceOnUse" gradientTransform="matrix(.95296 -.02666 .02618 .93592 .663 2.18)" cx="37.179" cy="31.097" fx="37.179" fy="31.097" r="19.094"/><radialGradient xlink:href="#f" id="G" gradientUnits="userSpaceOnUse" gradientTransform="matrix(.95296 -.02666 .02618 .93592 .663 2.18)" cx="37.179" cy="31.097" fx="37.179" fy="31.097" r="19.094"/><radialGradient xlink:href="#f" id="F" gradientUnits="userSpaceOnUse" gradientTransform="matrix(.95296 -.02666 .02618 .93592 .663 2.18)" cx="37.179" cy="31.097" fx="37.179" fy="31.097" r="19.094"/><radialGradient xlink:href="#f" id="E" gradientUnits="userSpaceOnUse" gradientTransform="matrix(.95296 -.02666 .02618 .93592 .663 2.18)" cx="37.179" cy="31.097" fx="37.179" fy="31.097" r="19.094"/><radialGradient xlink:href="#f" id="J" gradientUnits="userSpaceOnUse" gradientTransform="matrix(.95296 -.02666 .02618 .93592 .663 2.18)" cx="37.179" cy="31.097" fx="37.179" fy="31.097" r="19.094"/><radialGradient xlink:href="#f" id="I" gradientUnits="userSpaceOnUse" gradientTransform="matrix(.95296 -.02666 .02618 .93592 .663 2.18)" cx="37.179" cy="31.097" fx="37.179" fy="31.097" r="19.094"/><radialGradient xlink:href="#f" id="L" gradientUnits="userSpaceOnUse" gradientTransform="matrix(.95296 -.02666 .02618 .93592 .663 2.18)" cx="37.179" cy="31.097" fx="37.179" fy="31.097" r="19.094"/><radialGradient xlink:href="#f" id="K" gradientUnits="userSpaceOnUse" gradientTransform="matrix(.95296 -.02666 .02618 .93592 .663 2.18)" cx="37.179" cy="31.097" fx="37.179" fy="31.097" r="19.094"/><radialGradient xlink:href="#f" id="H" gradientUnits="userSpaceOnUse" gradientTransform="matrix(.95296 -.02666 .02618 .93592 .663 2.18)" cx="37.179" cy="31.097" fx="37.179" fy="31.097" r="19.094"/><radialGradient xlink:href="#f" id="O" gradientUnits="userSpaceOnUse" gradientTransform="matrix(.95296 -.02666 .02618 .93592 .663 2.18)" cx="37.179" cy="31.097" fx="37.179" fy="31.097" r="19.094"/><radialGradient xlink:href="#f" id="N" gradientUnits="userSpaceOnUse" gradientTransform="matrix(.95296 -.02666 .02618 .93592 .663 2.18)" cx="37.179" cy="31.097" fx="37.179" fy="31.097" r="19.094"/><radialGradient xlink:href="#f" id="Q" gradientUnits="userSpaceOnUse" gradientTransform="matrix(.95296 -.02666 .02618 .93592 .663 2.18)" cx="37.179" cy="31.097" fx="37.179" fy="31.097" r="19.094"/><radialGradient xlink:href="#f" id="P" gradientUnits="userSpaceOnUse" gradientTransform="matrix(.95296 -.02666 .02618 .93592 .663 2.18)" cx="37.179" cy="31.097" fx="37.179" fy="31.097" r="19.094"/><radialGradient xlink:href="#f" id="M" gradientUnits="userSpaceOnUse" gradientTransform="matrix(.95296 -.02666 .02618 .93592 .663 2.18)" cx="37.179" cy="31.097" fx="37.179" fy="31.097" r="19.094"/><radialGradient xlink:href="#f" id="T" gradientUnits="userSpaceOnUse" gradientTransform="matrix(.95296 -.02666 .02618 .93592 .663 2.18)" cx="37.179" cy="31.097" fx="37.179" fy="31.097" r="19.094"/><radialGradient xlink:href="#f" id="S" gradientUnits="userSpaceOnUse" gradientTransform="matrix(.95296 -.02666 .02618 .93592 .663 2.18)" cx="37.179" cy="31.097" fx="37.179" fy="31.097" r="19.094"/><radialGradient xlink:href="#f" id="R" gradientUnits="userSpaceOnUse" gradientTransform="matrix(.95296 -.02666 .02618 .93592 .663 2.18)" cx="37.179" cy="31.097" fx="37.179" fy="31.097" r="19.094"/><radialGradient xlink:href="#f" id="W" gradientUnits="userSpaceOnUse" gradientTransform="matrix(.95296 -.02666 .02618 .93592 .663 2.18)" cx="37.179" cy="31.097" fx="37.179" fy="31.097" r="19.094"/><radialGradient xlink:href="#f" id="V" gradientUnits="userSpaceOnUse" gradientTransform="matrix(.95296 -.02666 .02618 .93592 .663 2.18)" cx="37.179" cy="31.097" fx="37.179" fy="31.097" r="19.094"/><radialGradient xlink:href="#f" id="U" gradientUnits="userSpaceOnUse" gradientTransform="matrix(.95296 -.02666 .02618 .93592 .663 2.18)" cx="37.179" cy="31.097" fx="37.179" fy="31.097" r="19.094"/></defs><path d="M42.712 22.5c0 11.577-9.385 20.962-20.962 20.962S.788 34.077.788 22.5c0-11.577 9.385-20.961 20.962-20.961s20.962 9.384 20.962 20.961z" fill="url(#h)" stroke="#39396c" stroke-width="1.075" transform="translate(-.25 -1)"/><g transform="matrix(1.062 0 0 1.06198 -4.93 -3.638)" fill="url(#i)"><path d="M43.88 20.648l-.354.684c-.334-.394-.709-.725-1.09-1.07l-.835.122-.764-.863v1.068l.654.496.436.493.582-.658.436.823v.822l-.655.74-1.2.823-.907.907-.582-.66.29-.74-.58-.659-.982-2.098-.836-.945-.219.246.328 1.194.618.699c.352 1.017.7 1.99 1.164 2.963.718 0 1.394-.076 2.107-.166v.576l-.872 2.14-.8.903-.654 1.4v2.304l.219.906-.364.41-.8.494-.836.7.691.78-.945.825.181.533-1.418 1.606h-.944l-.8.494h-.51v-.659l-.216-1.318c-.282-.826-.574-1.646-.872-2.467 0-.605.036-1.205.072-1.81l.364-.823-.51-.988.038-1.357-.692-.782.346-1.13-.563-.639h-.982l-.327-.37-.982.618-.399-.454-.91.782c-.616-.7-1.235-1.399-1.853-2.098l-.726-1.729.654-.986-.363-.411.799-1.894c.656-.816 1.341-1.6 2.035-2.385l1.236-.33 1.381-.163.945.247 1.345 1.356.473-.534.653-.082 1.236.41h.946l.654-.575.29-.411-.654-.411-1.091-.082c-.303-.42-.584-.862-.944-1.235l-.364.164-.145 1.07-.655-.74-.144-.824-.727-.574h-.292l.728.822-.291.74-.581.165.363-.74-.655-.329-.58-.658-1.092.246-.145.328-.654.412-.363.906-.909.452-.4-.452h-.435v-1.482l.945-.494h.726l-.146-.575-.58-.576.98-.206.545-.617.436-.74h.8l-.218-.576.51-.33v.66l1.09.245 1.09-.904.072-.412.945-.658c-.342.043-.684.074-1.018.165v-.741l.363-.823h-.363l-.798.74-.22.412.22.576-.365.987-.58-.33-.509-.575-.8.576-.291-1.316 1.38-.905v-.494l.873-.576 1.381-.33.946.33 1.744.33-.436.492h-.945l.945.988.727-.823.157-.282c3.13 2.869 5.879 6.665 6.593 11.694z" fill="url(#l)"/><path d="M26.07 9.236l-.073.493.51.33.871-.576-.436-.494-.582.33-.29-.083" fill="url(#o)"/><path d="M26.87 5.863l-1.89-.74-2.18.246-2.69.74-.51.494 1.672 1.152v.658l-.654.658.873 1.73.58-.33.729-1.152c1.123-.347 2.13-.74 3.197-1.235l.873-2.22" fill="url(#r)"/><path d="M28.833 12.775l-.291-.741-.51.165.147.904.654-.328" fill="url(#u)"/><path d="M29.123 12.609l-.145.988.8-.165.58-.575-.508-.494c-.171-.455-.368-.88-.582-1.316h-.435v.493l.29.329v.74" fill="url(#x)"/><path d="M18.365 28.242l-.582-1.152-1.09-.247-.582-1.562-1.453.164-1.236-.904-1.309 1.151v.182c-.396-.115-.882-.13-1.235-.347l-.291-.822v-.906l-.872.082.218-1.727h-.51l-.507.658-.51.246-.727-.41-.073-.905.146-.988 1.09-.822h.873l.145-.494 1.09.246.8.988.145-1.646 1.382-1.152.508-1.234 1.018-.411.582-.822 1.308-.248.654-.987h-1.962l1.235-.576h.872l1.236-.412.146-.492-.437-.412-.509-.165.146-.493-.363-.74-.873.327.146-.657-1.018-.577-.8 1.398.073.494-.8.33-.509 1.07-.217-.987-1.382-.577-.218-.74 1.817-1.07.8-.74.073-.905-.436-.247-.582-.083-.363.906s-.703.055-.86.094c-2.575 2.14-6.06 6.064-6.87 13.37.037.173.679 1.181.679 1.181l1.526.904 1.527.412.654.824 1.018.74.581-.082.436.196v.133l-.581 1.563-.437.658.146.33-.363 1.233 1.308 2.386 1.308 1.153.582.822-.073 1.728.437.987-.437 1.892s-.034-.011.022.178c.056.19 2.329 1.451 2.473 1.344l.267-.205-.145-.41.581-.577.219-.576.945-.33.727-1.81-.218-.493.508-.74 1.09-.248.582-1.316-.145-1.645.872-1.234.146-1.235c-1.194-.591-2.378-1.2-3.562-1.81" fill="url(#A)"/><path d="M16.766 9.565l.726.494h.582v-.576l-.726-.33-.582.412" fill="url(#D)"/><path d="M14.876 8.907l-.364.905h.727l.364-.823c.314-.222.626-.445.945-.658l.727.247c.484.33.969.658 1.454.987l.727-.658-.8-.329-.364-.74-1.38-.165-.074-.412-.654.165-.29.576-.364-.74-.145.328.073.823-.582.494" fill="url(#G)"/><path d="M17.492 6.85l.364-.329.727-.165c.498-.242.998-.405 1.527-.576l-.29-.494-.939.135-.443.442-.731.106-.65.305-.316.153-.193.259.944.164" fill="url(#T)"/><path d="M18.729 14.666l.436-.658-.655-.493.218 1.151" fill="url(#W)"/></g><path d="M41.648 22.5c0 10.989-8.91 19.898-19.898 19.898-10.99 0-19.898-8.91-19.898-19.899S10.761 2.602 21.75 2.602c10.989 0 19.898 8.908 19.898 19.897z" opacity=".396" fill="none" stroke="url(#X)" stroke-width="1.075" transform="translate(-.25 -1)"/></svg>